<svg xmlns="http://www.w3.org/2000/svg" xmlns:xlink="http://www.w3.org/1999/xlink" viewBox="0 0 572.98 181.03"><defs><style>.a,.c,.d,.f{fill:#03a9f4;}.a{clip-rule:evenodd;}.b{isolation:isolate;}.c{font-size:115.05px;font-family: 'Baloo Bhaina 2', cursive;;font-weight:600;letter-spacing:0.16em;}.d,.f{fill-rule:evenodd;}.e{clip-path:url(#a);}.f{opacity:0.22;mix-blend-mode:overlay;}.g{clip-path:url(#b);}.h{clip-path:url(#c);}</style><clipPath id="a" transform="translate(13.46 -43.54)"><path class="a" d="M27.83,77.39A31.29,31.29,0,0,1,72.24,52.76h0c22.73,10.71,39.21,3.92,39.21,3.92s0,.39-.13,1.06a27.21,27.21,0,0,1-42.14,19.4h0C53,66.29,27.36,81.33,27.36,81.33S27.54,79.77,27.83,77.39Z"/></clipPath><clipPath id="b" transform="translate(13.46 -43.54)"><path class="a" d="M21.21,108.88A31.3,31.3,0,0,1,65.63,84.26h0c22.73,10.71,39.2,3.92,39.2,3.92s0,.38-.12,1.06a27.2,27.2,0,0,1-42.15,19.39h0c-16.21-10.85-41.81,4.19-41.81,4.19S20.93,111.26,21.21,108.88Z"/></clipPath><clipPath id="c" transform="translate(13.46 -43.54)"><path class="a" d="M14.6,140.38A31.29,31.29,0,0,1,59,115.75h0c22.72,10.71,39.2,3.92,39.2,3.92s0,.39-.13,1.06A27.21,27.21,0,0,1,56,140.13h0c-16.21-10.85-41.82,4.19-41.82,4.19S14.32,142.76,14.6,140.38Z"/></clipPath></defs><title>mim_logo</title><g class="b"><text class="c" transform="translate(0 92.44) scale(1.07 1)"><tspan xml:space="preserve">   xamer</tspan></text><path class="d" d="M27.83,77.39A31.29,31.29,0,0,1,72.24,52.76h0c22.73,10.71,39.21,3.92,39.21,3.92s0,.39-.13,1.06a27.21,27.21,0,0,1-42.14,19.4h0C53,66.29,27.36,81.33,27.36,81.33S27.54,79.77,27.83,77.39Z" transform="translate(13.46 -43.54)"/><path class="d" d="M27.83,77.39A31.29,31.29,0,0,1,72.24,52.76h0c22.73,10.71,39.21,3.92,39.21,3.92s0,.39-.13,1.06a27.21,27.21,0,0,1-42.14,19.4h0C53,66.29,27.36,81.33,27.36,81.33S27.54,79.77,27.83,77.39Z" transform="translate(13.46 -43.54)"/><g class="e"><path class="f" d="M26.14,87.62a29.46,29.46,0,0,1,44.7-22.15h0c22.51,13.81,43.56-11,43.56-11s-1.4,6.82-3.07,14.9A28.83,28.83,0,0,1,67.06,87.49h0c-16.2-10.85-41.47,5.67-41.47,5.67Z" transform="translate(13.46 -43.54)"/></g><path class="d" d="M21.21,108.88A31.3,31.3,0,0,1,65.63,84.26h0c22.73,10.71,39.2,3.92,39.2,3.92s0,.38-.12,1.06a27.2,27.2,0,0,1-42.15,19.39h0c-16.21-10.85-41.81,4.19-41.81,4.19S20.93,111.26,21.21,108.88Z" transform="translate(13.46 -43.54)"/><path class="d" d="M21.21,108.88A31.3,31.3,0,0,1,65.63,84.26h0c22.73,10.71,39.2,3.92,39.2,3.92s0,.38-.12,1.06a27.2,27.2,0,0,1-42.15,19.39h0c-16.21-10.85-41.81,4.19-41.81,4.19S20.93,111.26,21.21,108.88Z" transform="translate(13.46 -43.54)"/><g class="g"><path class="f" d="M19.53,119.11A29.45,29.45,0,0,1,64.23,97h0c22.51,13.8,43.56-11,43.56-11s-1.41,6.82-3.07,14.91A28.84,28.84,0,0,1,60.44,119h0C44.23,108.14,19,124.65,19,124.65S19.2,122.39,19.53,119.11Z" transform="translate(13.46 -43.54)"/></g><path class="d" d="M14.6,140.38A31.29,31.29,0,0,1,59,115.75h0c22.72,10.71,39.2,3.92,39.2,3.92s0,.39-.13,1.06A27.21,27.21,0,0,1,56,140.13h0c-16.21-10.85-41.82,4.19-41.82,4.19S14.32,142.76,14.6,140.38Z" transform="translate(13.46 -43.54)"/><path class="d" d="M14.6,140.38A31.29,31.29,0,0,1,59,115.75h0c22.72,10.71,39.2,3.92,39.2,3.92s0,.39-.13,1.06A27.21,27.21,0,0,1,56,140.13h0c-16.21-10.85-41.82,4.19-41.82,4.19S14.32,142.76,14.6,140.38Z" transform="translate(13.46 -43.54)"/><g class="h"><path class="f" d="M12.91,150.6a29.46,29.46,0,0,1,44.7-22.14h0c22.51,13.81,43.57-11,43.57-11L98.1,132.34a28.82,28.82,0,0,1-44.27,18.14h0c-16.21-10.85-41.47,5.67-41.47,5.67S12.58,153.88,12.91,150.6Z" transform="translate(13.46 -43.54)"/></g></g></svg>
